<?xml version="1.0" encoding="UTF-8"?> <svg xmlns="http://www.w3.org/2000/svg" id="Layer_1" data-name="Layer 1" version="1.1" viewBox="0 0 658.52 217.05"><defs><style> .cls-1 { fill: #3a3a3a; } .cls-1, .cls-2, .cls-3, .cls-4, .cls-5 { stroke-width: 0px; } .cls-2 { fill: #3da662; } .cls-2, .cls-3, .cls-4, .cls-5 { fill-rule: evenodd; } .cls-3 { fill: #597bad; } .cls-4 { fill: #ffcb05; } .cls-5 { fill: #e41e2b; } </style></defs><g><path class="cls-3" d="M182.79,128.04c1.47-7.52-2.45-14.91-8.4-18,15.82-5.76,20.19-17.72,24.69-34.5,4.71-15.38.8-24.54-11.71-27.51l-37.91,123.74c18.53-1.41,31.13-26.92,33.32-43.73Z"></path><path class="cls-5" d="M63.89,171.78h19.18l37.9-123.74h-19.18l-37.9,123.74Z"></path><path class="cls-4" d="M92.75,171.78h19.18l37.9-123.74h-19.18l-37.9,123.74Z"></path><path class="cls-2" d="M120.92,171.78h19.18l37.9-123.74h-19.18l-37.9,123.74Z"></path></g><g><path class="cls-1" d="M216.15,157.03v-87.96h39.17c15.3,0,24.66,9.23,24.66,22.42,0,11.08-7.39,18.46-15.43,20.18,9.36,1.45,17.15,11.08,17.15,21.63,0,14.11-9.36,23.74-25.45,23.74h-40.09ZM227.1,107.18h26.38c9.89,0,15.17-6.07,15.17-14.11s-5.27-14.24-15.17-14.24h-26.38v28.35ZM227.1,147.27h26.9c10.29,0,16.35-5.8,16.35-15.17,0-8.04-5.54-15.17-16.35-15.17h-26.9v30.33Z"></path><path class="cls-1" d="M293.17,75.92c0-3.69,3.03-6.59,6.59-6.59s6.73,2.9,6.73,6.59-3.03,6.73-6.73,6.73-6.59-3.03-6.59-6.73ZM294.88,157.03v-63.7h9.89v63.7h-9.89Z"></path><path class="cls-1" d="M320.73,157.03v-87.96h9.89v87.96h-9.89Z"></path><path class="cls-1" d="M346.58,157.03v-87.96h9.89v87.96h-9.89Z"></path><path class="cls-1" d="M370.71,75.92c0-3.69,3.03-6.59,6.59-6.59s6.73,2.9,6.73,6.59-3.03,6.73-6.73,6.73-6.59-3.03-6.59-6.73ZM372.43,157.03v-63.7h9.89v63.7h-9.89Z"></path><path class="cls-1" d="M473.58,157.03v-63.3l-24.79,63.3h-8.18l-24.8-63.3v63.3h-18.73v-87.96h26.25l21.37,54.86,21.37-54.86h26.38v87.96h-18.86Z"></path><path class="cls-1" d="M506.02,157.03v-87.96h34.69c27.56,0,46.69,17.54,46.69,44.05s-19.12,43.92-46.69,43.92h-34.69ZM524.75,140.54h15.96c17.41,0,27.56-12.53,27.56-27.43s-9.5-27.56-27.56-27.56h-15.96v54.99Z"></path></g><path class="cls-1" d="M588.87,156.37c-.94-.56-1.68-1.32-2.22-2.3s-.8-2.07-.8-3.28.27-2.3.8-3.28,1.27-1.74,2.22-2.3c.94-.56,2-.84,3.18-.84s2.23.28,3.18.84c.94.56,1.68,1.32,2.22,2.3.54.97.8,2.07.8,3.28s-.27,2.3-.8,3.28c-.53.97-1.27,1.74-2.22,2.3-.94.56-2,.84-3.18.84s-2.24-.28-3.18-.84ZM594.57,155.3c.75-.44,1.33-1.05,1.75-1.84.42-.79.63-1.68.63-2.66s-.21-1.87-.63-2.66c-.42-.79-1.01-1.4-1.75-1.84s-1.59-.66-2.53-.66-1.78.22-2.53.66-1.33,1.05-1.75,1.84c-.42.79-.63,1.68-.63,2.66s.21,1.87.63,2.66c.42.79,1.01,1.4,1.75,1.84s1.59.66,2.53.66,1.78-.22,2.53-.66ZM590.08,146.98h2.07c.69,0,1.2.16,1.52.49.33.33.49.83.49,1.5v.16c0,.83-.31,1.38-.93,1.66v.04c.33.14.57.36.71.66s.21.68.21,1.16v.91c0,.46.05.81.16,1.05h-1.39c-.05-.13-.08-.26-.1-.38-.02-.12-.03-.35-.03-.69v-.91c0-.4-.07-.69-.21-.85s-.37-.25-.69-.25h-.46v3.08h-1.35v-7.62ZM591.99,150.28c.26,0,.46-.07.61-.21.14-.14.21-.37.21-.7v-.23c0-.31-.06-.54-.17-.69-.11-.15-.3-.22-.56-.22h-.64v2.05h.55Z"></path></svg> 